<svg id="Capa_1" enable-background="new 0 0 512.599 512.599" height="512" viewBox="0 0 512.599 512.599" width="512" xmlns="http://www.w3.org/2000/svg"><g><path d="m457.21 512.599h-401.821c-30.59 0-55.389-24.799-55.389-55.389v-401.821c0-30.59 24.799-55.389 55.389-55.389h401.82c30.591 0 55.389 24.799 55.389 55.389v401.82c.001 30.591-24.798 55.39-55.388 55.39z"/><path d="m397.875 146.035h-283.151c-2.173 0-4.346-.007-6.518.052-6.58.179-13.053 1.565-17.905 6.417-4.834 4.834-6.237 11.286-6.418 17.905-.059 2.172-.049 4.345-.049 6.518v159.04c0 2.173-.008 4.346.049 6.518.113 4.306.61 8.734 2.604 12.651 3.432 6.742 9.98 10.385 17.3 11.339 3.62.472 7.294.382 10.937.382h283.151c4.324 0 8.732.14 13.006-.62 6.444-1.145 12.245-5.245 15.229-11.101 2.451-4.811 2.619-10.343 2.646-15.629.009-1.182.009-2.359.009-3.54v-159.04c0-1.181 0-2.36-.009-3.54-.04-5.288-.19-10.817-2.646-15.631-4.253-8.336-12.843-11.427-21.717-11.669-2.172-.059-4.345-.052-6.518-.052" fill="#fff"/><path d="m397.875 153.395 3.483.007c.944.006 1.887.017 2.836.042 1.651.045 3.581.134 5.381.457 1.564.282 2.877.71 4.136 1.351 1.243.632 2.381 1.46 3.376 2.453.998.999 1.827 2.14 2.467 3.397.637 1.249 1.063 2.555 1.343 4.131.322 1.78.411 3.716.456 5.376.026.938.038 1.875.043 2.835.009 1.16.008 2.32.008 3.483v159.039c0 1.163.001 2.321-.009 3.506-.004.937-.016 1.875-.042 2.814-.045 1.658-.134 3.593-.46 5.394-.276 1.554-.701 2.86-1.342 4.116-.638 1.253-1.466 2.393-2.46 3.386-1 1-2.135 1.826-3.393 2.463-1.25.638-2.559 1.066-4.108 1.345-1.836.327-3.848.417-5.363.458-.953.022-1.902.035-2.874.039-1.158.009-2.32.009-3.478.009h-283.151-.046c-1.145 0-2.292 0-3.458-.009-.95-.004-1.899-.017-2.816-.038-1.549-.042-3.562-.132-5.383-.457-1.562-.281-2.872-.709-4.138-1.355-1.246-.632-2.381-1.456-3.381-2.459-.993-.991-1.818-2.127-2.456-3.382-.638-1.254-1.065-2.564-1.346-4.137-.325-1.798-.414-3.725-.459-5.372-.025-.943-.036-1.886-.042-2.823l-.005-2.767.001-.731v-159.039l-.001-.731.005-2.761c.006-.943.017-1.886.042-2.828.045-1.649.134-3.577.461-5.389.279-1.559.706-2.869 1.348-4.129.632-1.246 1.459-2.384 2.457-3.381.994-.995 2.132-1.822 3.386-2.459 1.252-.638 2.565-1.066 4.127-1.347 1.8-.324 3.732-.413 5.387-.458.943-.025 1.886-.036 2.822-.042l3.495-.007z"/><g fill="#fff"><path d="m177.998 220.306c2.953-3.694 4.958-8.654 4.429-13.723-4.323.215-9.599 2.853-12.654 6.55-2.742 3.165-5.17 8.333-4.537 13.189 4.853.421 9.702-2.426 12.762-6.016"/><path d="m182.372 227.271c-7.048-.42-13.041 4-16.406 4-3.368 0-8.522-3.788-14.097-3.686-7.255.106-13.988 4.209-17.67 10.733-7.573 13.053-1.998 32.415 5.366 43.046 3.577 5.259 7.887 11.05 13.566 10.842 5.366-.211 7.469-3.474 13.992-3.474 6.517 0 8.412 3.474 14.092 3.369 5.891-.106 9.573-5.262 13.149-10.527 4.103-5.995 5.783-11.784 5.888-12.102-.105-.105-11.358-4.422-11.462-17.366-.107-10.839 8.834-15.994 9.255-16.314-5.049-7.467-12.938-8.309-15.673-8.521"/><path d="m243.741 212.602c15.319 0 25.986 10.56 25.986 25.933 0 15.429-10.887 26.043-26.37 26.043h-16.961v26.972h-12.254v-78.948zm-17.345 41.69h14.061c10.669 0 16.741-5.744 16.741-15.702 0-9.957-6.072-15.647-16.686-15.647h-14.116z"/><path d="m272.928 275.192c0-10.067 7.715-16.249 21.393-17.015l15.756-.93v-4.431c0-6.402-4.322-10.231-11.543-10.231-6.84 0-11.108 3.282-12.146 8.425h-11.161c.656-10.396 9.519-18.055 23.744-18.055 13.951 0 22.868 7.386 22.868 18.93v39.666h-11.325v-9.465h-.272c-3.337 6.401-10.615 10.449-18.164 10.449-11.271 0-19.15-7.003-19.15-17.343m37.149-5.197v-4.541l-14.171.875c-7.057.493-11.051 3.611-11.051 8.535 0 5.033 4.158 8.316 10.505 8.316 8.261 0 14.717-5.69 14.717-13.185"/><path d="m332.531 312.724v-9.575c.874.219 2.843.219 3.829.219 5.47 0 8.425-2.298 10.23-8.206 0-.11 1.04-3.502 1.04-3.557l-20.789-57.611h12.801l14.554 46.834h.218l14.554-46.834h12.474l-21.558 60.565c-4.922 13.952-10.612 18.438-22.539 18.438-.985 0-3.94-.109-4.814-.273"/></g></g></svg>