<svg height="512" viewBox="0 0 60 60" width="512" xmlns="http://www.w3.org/2000/svg"><g id="Page-1" fill="none" fill-rule="evenodd"><g id="049---Barbeque-Smoking" fill-rule="nonzero"><path id="Shape" d="m59.0000288 26c.010317 6.0891878-2.7677544 11.8479751-7.5400288 15.63l-.69-1.3c-.6461732-1.2205493-2.1594507-1.6861732-3.38-1.04s-1.6861732 2.1594507-1.04 3.38l.84 1.58c-1.9613379.8788425-4.0514477 1.43598-6.19 1.65-1.33.1333333-2.67.1333333-4 0-2.1385523-.21402-4.2286621-.7711575-6.19-1.65l.84-1.58c.4180007-.789557.3830257-1.7421384-.0917503-2.4989161-.474776-.7567778-1.3172232-1.2027793-2.21-1.17-.8927767.0327792-1.700249.5393591-2.1182497 1.3289161l-.69 1.3c-1.795457-1.4261645-3.3313278-3.1514819-4.54-5.1v-6.85c.1099359.0692301.2234249.1326505.34.19 3.58 1.89 9.7 3.13 16.66 3.13 11.05 0 20-3.13 20.0000288-7z" fill="#e8edfc"/><path id="Shape" d="m31.65 42.67-.84 1.58-7.1 13.42c-.4334401.8184688-1.2838459 1.3302515-2.21 1.33-.4081006.0025763-.8103446-.0971252-1.17-.29-1.217157-.6489756-1.6817922-2.15904-1.04-3.38l7.25-13.7.69-1.3c.6461732-1.2205492 2.1594507-1.6861731 3.38-1.0399999 1.2205492.6461731 1.6861731 2.1594506 1.04 3.3799999z" fill="#e8edfc"/><path id="Shape" d="m57.67 58.71c-.3596554.1928748-.7618994.2925763-1.17.29-.9261541.0002515-1.7765599-.5115312-2.21-1.33l-7.1-13.42-.84-1.58c-.4180007-.789557-.3830257-1.7421384.0917503-2.4989161.474776-.7567778 1.3172232-1.2027793 2.21-1.17.8927767.0327792 1.700249.5393591 2.1182497 1.3289161l.69 1.3 7.25 13.7c.6417922 1.22096.177157 2.7310244-1.04 3.38z" fill="#e8edfc"/><path id="Shape" d="m41 45.9v9.1c0 1.1045695-.8954305 2-2 2s-2-.8954305-2-2v-9.1c1.33.1333333 2.67.1333333 4 0z" fill="#a4c2f7"/><path id="Shape" d="m59 26c0 3.87-8.95 7-20 7-6.96 0-13.08-1.24-16.66-3.13-.1165751-.0573495-.2300641-.1207699-.34-.19v-7.36c1.3677455-.7503192 2.8217841-1.331263 4.33-1.73 4.1307798-1.1067566 8.3938364-1.6417416 12.67-1.59 11.05 0 20 3.13 20 7z" fill="#a4c2f7"/><path id="Shape" d="m39 19c-.542 0-1.076.01-1.607.025 10.397.251 18.607 3.275 18.607 6.975s-8.208 6.724-18.6 6.975c.529.015 1.062.025 1.6.025 11.05 0 20-3.13 20-7s-8.95-7-20-7z" fill="#7facfa"/><path id="Shape" d="m22 3v36c-.0032948 1.1032019-.8967981 1.9967052-2 2-3.7130309 0-7.2739856-1.4749958-9.8994949-4.1005051-2.62550933-2.6255093-4.1005051-6.186464-4.1005051-9.8994949v-12c0-7.7319865 6.2680135-14 14-14 .5305905-.00282307 1.0395388.2101411 1.41.59.3798589.3704612.5928231.87940947.59 1.41z" fill="#e8edfc"/><path id="Shape" d="m21.41 1.59c-.3704612-.3798589-.8794095-.59282307-1.41-.59-.7273725.00520252-1.4532347.06705628-2.171.185.2170018.09798629.4139879.23530014.581.405.3798589.3704612.5928231.87940947.59 1.41v36c-.0027424.7819884-.4609897 1.4906506-1.173 1.814.7184058.1183219 1.4449362.1805099 2.173.186 1.1032019-.0032948 1.9967052-.8967981 2-2v-36c.0028231-.53059053-.2101411-1.0395388-.59-1.41z" fill="#cad9fc"/><path id="Shape" d="m20.83 40.813c-6.8029109-1.0698955-11.81872243-6.9264808-11.83-13.813v-12c.01127757-6.88651919 5.0270891-12.74310449 11.83-13.813-.259764-.12198466-.5430224-.18580312-.83-.187-7.7278751.00991673-13.99008327 6.27212487-14 14v12c.01101558 7.7274191 6.2725809 13.9889844 14 14 .2869667-.0012931.5702046-.065107.83-.187z" fill="#fff"/><path id="Shape" d="m11.89 39.607 1.084-1.681c1.0416849.6709278 2.1737554 1.1898216 3.362 1.541 1.1926489.3376977 2.4245678.5169042 3.664.533v2c-1.4299895-.0163674-2.851451-.2228442-4.227-.614-1.3723585-.4052978-2.6798678-1.0043344-3.883-1.779z" fill="#fff"/><g fill="#428dff"><path id="Shape" d="m60 26c0-3.836-5.9-6.367-13.083-7.43-.022 0-.043-.007-.066-.009-5.2208181-.7460141-10.5211819-.7460141-15.742 0-1.7046587.2436196-3.391096.6010855-5.048 1.07-1.0441289.2894406-2.0669181.6509754-3.061 1.082v-17.713c0-1.65685425-1.3431458-3-3-3-7.8881434.01221764-14.42018887 6.12959248-14.949 14h-2.051c-1.65685425 0-3 1.3431458-3 3v8c0 1.6568542 1.34314575 3 3 3h2.042c.15547175 2.165298.76574534 4.2734849 1.791 6.187 1.21469972 2.1947518 2.95158242 4.0563109 5.057 5.42.2248305.1550482.5044284.2085794.7706299.1475432s.4945479-.2310318.6293701-.4685432c.2651578-.4655397.1295638-1.0565905-.312-1.36-1.8257581-1.1827438-3.33211896-2.7969472-4.386-4.7-1.02586958-1.9162386-1.57212263-4.0525273-1.592-6.226v-12c.00826602-7.17627506 5.8237249-12.99173398 13-13 .5522847 0 1 .44771525 1 1v36c0 .5522847-.4477153 1-1 1s-1 .4477153-1 1 .4477153 1 1 1c1.4579417-.0037315 2.7021258-1.0551071 2.949-2.492.7153198.8469852 1.4971384 1.6354917 2.338 2.358l-6.88 12.995c-.585201 1.1052011-.5363313 2.4386501.1282004 3.4980496s1.8437672 1.6838016 3.0935 1.638c1.2497327-.0458016 2.3800986-.7548485 2.9652996-1.8600496l6.683-12.623c1.5200122.6008497 3.1051309 1.0217133 4.723 1.254v8.232c0 1.6568542 1.3431458 3 3 3s3-1.3431458 3-3v-8.232c1.6178251-.2325024 3.202919-.6533594 4.723-1.254l6.683 12.623c.585201 1.1052011 1.7155669 1.814248 2.9652996 1.8600496 1.2497328.0458016 2.4289683-.5786005 3.0935-1.638s.7134014-2.3928485.1282004-3.4980496l-6.874-12.984c4.6370976-3.969106 7.2987929-9.7732175 7.281-15.877zm-58-1v-8c0-.5522847.44771525-1 1-1h2v10h-2c-.55228475 0-1-.4477153-1-1zm56 1c0 .819-.668 1.663-1.861 2.452l-2.679-6.232c2.873 1.104 4.54 2.474 4.54 3.78zm-14.108 5.781-1.108-11.653c1.107.074 2.162.183 3.174.316l2.9 10.633c-1.6410254.3264114-3.2989111.5614399-4.966.704zm6.915-1.157-2.685-9.845c1 .183 1.939.4 2.812.63l3.436 7.991c-1.152971.50276-2.3444707.9120768-3.563 1.224zm-10.04-10.593 1.133 11.888c-.94.048-1.9.081-2.9.081-.979 0-1.945-.028-2.9-.077l1.147-11.895c.5826667-.0186667 1.167-.028 1.753-.028.6 0 1.186.013 1.767.031zm-11.624 11.041 2.888-10.62c1.037-.138 2.107-.245 3.2-.32l-1.122 11.653c-1.6672596-.145522-3.3251473-.3835555-4.966-.713zm-2.535-9.521c1.009-.293 2.106-.542 3.257-.755l-2.671 9.821c-1.4471104-.3663818-2.852553-.8811076-4.194-1.536v-6.156c1.1538759-.5770856 2.3625522-1.0373742 3.608-1.374zm-3.782 35.649c-.3960204.7216436-1.2940334.9976486-2.027.623-.731908-.3875481-1.0112398-1.2949288-.624-2.027l7.941-15c.1856574-.3515882.5038024-.6146697.884-.731.143982-.0434562.2936035-.0653602.444-.065.5252354.0009275 1.0117255.2765116 1.2825586.7265365.2708332.4500249.2865524 1.0089276.0414414 1.4734635zm16.174-1.2c-.5522847 0-1-.4477153-1-1v-8.024c.325.015.656.024 1 .024s.675-.009 1-.024v8.024c0 .5522847-.4477153 1-1 1zm18.933.94c-.1160057.3815379-.3804952.7004387-.734.885-.7328811.3714911-1.6283248.0955617-2.025-.624l-7.942-15c-.2455989-.4646122-.2301366-1.0238723.0407584-1.4742046.2708951-.4503324.7577106-.7260523 1.2832416-.7267954.1498202.0005577.2987449.0231323.442.067.3808021.1166977.6995596.3800504.886.732l7.941 15c.187012.3506242.2259043.7615143.108 1.141zm-6.282-17.08c-.9049186-1.7082167-3.0232833-2.3594185-4.7315-1.4544999-1.7082166.9049185-2.3594185 3.0232832-1.4545 4.7314999l.318.6c-4.3649742 1.6853139-9.2010258 1.6853139-13.566 0l.318-.6c.5927049-1.1057718.5482146-2.444203-.116614-3.5081735-.6648287-1.0639706-1.8482875-1.6907102-3.1019743-1.6427526-1.2536868.0479575-2.3858076.7632755-2.9674117 1.8749261l-.1.193c-1.2489059-1.1261105-2.3415923-2.4141956-3.249-3.83v-4.934c1.4862119.6300611 3.0256397 1.1263592 4.6 1.483.0138065.0083204.0281744.0156714.043.022.0378812.0080048.0763329.0130203.115.015 2.3504681.529726 4.738161.8780844 7.142 1.042h.012c.032 0 .065.005.1.005 1.3.091 2.635.14 3.989.14 1.323 0 2.656-.048 3.976-.142h.013c.0334064.000499.06681-.0011712.1-.005.01 0 .017-.006.027-.008 2.3945062-.1663581 4.7731718-.5119933 7.116-1.034.0450073-.0031123.0897669-.0091247.134-.018.02-.006.034-.02.054-.027 2.5559195-.5066968 4.9934558-1.4905319 7.185-2.9-.8061111 3.9373802-2.8537145 7.5124495-5.842 10.2z"/><path id="Shape" d="m16.065 41.427c-.5522847.0024853-1.0020147-.4432153-1.0045-.9955s.4432153-1.0020147.9955-1.0045h.009c.5522847 0 1 .4477153 1 1s-.4477153 1-1 1z"/><path id="Shape" d="m18.979 5c-.1103892-.5403599-.637425-.88933097-1.178-.78-5.1157167 1.05675752-8.78922114 5.55628917-8.801 10.78 0 .5522847.44771525 1 1 1 .5522847 0 1-.4477153 1-1 .0107978-4.2730445 3.0155285-7.95342239 7.2-8.819.2599654-.05321095.4881229-.20756477.6342317-.42907243.1461087-.22150767.1981875-.49200486.1447683-.75192757z"/><path id="Shape" d="m32.631 3.4c.8225553-.52684568 1.3341971-1.42380722 1.369-2.4 0-.55228475-.4477153-1-1-1s-1 .44771525-1 1c0 .3-.127.438-.63.847-.822937.52661639-1.334975 1.42361721-1.37 2.4.0348029.97619278.5464447 1.87315432 1.369 2.4.5.41.631.552.631.848s-.127.442-.631.852c-.8217863.52757579-1.3331773 1.42409747-1.369 2.4.0364997.9757095.5477244 1.8719397 1.369 2.4.5.41.631.552.631.85 0 .5522847.4477153 1 1 1s1-.4477153 1-1c-.0358227-.9759025-.5472137-1.8724242-1.369-2.4-.5-.411-.631-.554-.631-.852s.127-.44.631-.85c.8215589-.52826004 1.3328224-1.42493196 1.369-2.401-.035025-.97638279-.547063-1.87338361-1.37-2.4-.5-.409-.63-.551-.63-.847s.127-.438.631-.847z"/><path id="Shape" d="m38.631 3.4c.8225553-.52684568 1.3341971-1.42380722 1.369-2.4 0-.55228475-.4477153-1-1-1s-1 .44771525-1 1c0 .3-.127.438-.63.847-.822937.52661639-1.334975 1.42361721-1.37 2.4.0348029.97619278.5464447 1.87315432 1.369 2.4.5.41.631.552.631.848s-.127.442-.631.852c-.8217863.52757579-1.3331773 1.42409747-1.369 2.4.0364997.9757095.5477244 1.8719397 1.369 2.4.5.41.631.552.631.85 0 .5522847.4477153 1 1 1s1-.4477153 1-1c-.0358227-.9759025-.5472137-1.8724242-1.369-2.4-.5-.411-.631-.554-.631-.852s.127-.44.631-.85c.8215589-.52826004 1.3328224-1.42493196 1.369-2.401-.035025-.97638279-.547063-1.87338361-1.37-2.4-.5-.409-.63-.551-.63-.847s.127-.438.631-.847z"/><path id="Shape" d="m44.631 3.4c.8225553-.52684568 1.3341971-1.42380722 1.369-2.4 0-.55228475-.4477153-1-1-1s-1 .44771525-1 1c0 .3-.127.438-.63.847-.822937.52661639-1.334975 1.42361721-1.37 2.4.0348029.97619278.5464447 1.87315432 1.369 2.4.5.41.631.552.631.848s-.127.442-.631.852c-.8217863.52757579-1.3331773 1.42409747-1.369 2.4.0364997.9757095.5477244 1.8719397 1.369 2.4.5.41.631.552.631.85 0 .5522847.4477153 1 1 1s1-.4477153 1-1c-.0358227-.9759025-.5472137-1.8724242-1.369-2.4-.5-.411-.631-.554-.631-.852s.127-.44.631-.85c.8215589-.52826004 1.3328224-1.42493196 1.369-2.401-.035025-.97638279-.547063-1.87338361-1.37-2.4-.5-.409-.63-.551-.63-.847s.127-.438.631-.847z"/></g></g></g></svg>