<?xml version="1.0" encoding="iso-8859-1"?>
<!-- Generator: Adobe Illustrator 19.0.0, SVG Export Plug-In . SVG Version: 6.00 Build 0)  -->
<svg version="1.1" id="Capa_1" xmlns="http://www.w3.org/2000/svg" xmlns:xlink="http://www.w3.org/1999/xlink" x="0px" y="0px"
	 viewBox="0 0 496 496" style="enable-background:new 0 0 496 496;" xml:space="preserve">
<g>
	<g>
		<g>
			<rect x="32" y="342.456" width="16" height="16"/>
			<rect x="64" y="342.456" width="16" height="16"/>
			<rect x="448" y="342.456" width="16" height="16"/>
			<rect x="416" y="342.456" width="16" height="16"/>
			<path d="M472,238.456h-64c-13.232,0-24,10.768-24,24H112c0-13.232-10.768-24-24-24H24c-13.232,0-24,10.768-24,24v40v8v88h32v16
				c0,17.648,14.352,32,32,32h8v32c0,8.816,7.176,16,16,16h48c8.816,0,16-7.184,16-16v-32h192v32c0,8.816,7.176,16,16,16h48
				c8.816,0,16-7.184,16-16v-32h8c17.648,0,32-14.352,32-32v-16h32v-88v-8v-40C496,249.224,485.232,238.456,472,238.456z
				 M352,278.456h32v24h-32V278.456z M304,278.456h32v24h-32V278.456z M256,278.456h32v24h-32V278.456z M208,278.456h32v24h-32
				V278.456z M160,278.456h32v24h-32V278.456z M112,278.456h32v24h-32V278.456z M16,262.456c0-4.416,3.584-8,8-8h64
				c4.416,0,8,3.584,8,8v40H16V262.456z M136,478.456H88v-32h48V478.456z M408,478.456h-48v-32h48V478.456z M448,414.456
				c0,8.816-7.184,16-16,16H64c-8.824,0-16-7.184-16-16v-16h400V414.456z M480,382.456H16v-64h464V382.456z M480,302.456h-80v-40
				c0-4.416,3.584-8,8-8h64c4.416,0,8,3.584,8,8V302.456z"/>
			<path d="M329.688,241.544l12.624,9.832l19.168-24.64c23.904-30.728,24.28-73.936,0.92-105.08
				c-19.04-25.376-18.736-60.592,0.752-85.64l19.16-24.64l-12.624-9.832l-19.168,24.64c-23.904,30.728-24.28,73.936-0.92,105.08
				c19.04,25.376,18.736,60.592-0.752,85.64L329.688,241.544z"/>
			<path d="M241.688,241.544l12.624,9.832l19.168-24.64c23.904-30.728,24.28-73.936,0.92-105.08
				c-19.04-25.376-18.736-60.592,0.752-85.64l19.16-24.64l-12.624-9.832l-19.168,24.64c-23.904,30.728-24.28,73.936-0.92,105.08
				c19.04,25.376,18.736,60.592-0.752,85.64L241.688,241.544z"/>
			<path d="M145.688,241.544l12.624,9.832l19.168-24.64c23.904-30.728,24.28-73.936,0.92-105.08
				c-19.04-25.376-18.736-60.592,0.752-85.64l19.16-24.64l-12.624-9.832l-19.168,24.64c-23.904,30.728-24.28,73.936-0.92,105.08
				c19.04,25.376,18.736,60.592-0.752,85.64L145.688,241.544z"/>
		</g>
	</g>
</g>
<g>
</g>
<g>
</g>
<g>
</g>
<g>
</g>
<g>
</g>
<g>
</g>
<g>
</g>
<g>
</g>
<g>
</g>
<g>
</g>
<g>
</g>
<g>
</g>
<g>
</g>
<g>
</g>
<g>
</g>
</svg>
