<svg height="512" viewBox="0 0 64 64" width="512" xmlns="http://www.w3.org/2000/svg"><g id="car-wifi-garage-parking-home"><path d="m46 43-.24.24a5.993 5.993 0 0 1 -4.25 1.76h-19.02a5.993 5.993 0 0 1 -4.25-1.76l-.24-.24a4 4 0 0 0 -4 4v8a2.006 2.006 0 0 0 2 2h32a2.006 2.006 0 0 0 2-2v-8a4 4 0 0 0 -4-4z" fill="#ed1c24"/><path d="m39.315 35h-14.63a6 6 0 0 0 -5.821 4.545l-.864 3.455.243.243a6 6 0 0 0 4.242 1.757h19.03a6 6 0 0 0 4.242-1.757l.243-.243-.864-3.455a6 6 0 0 0 -5.821-4.545z" fill="#d1d3d4"/><path d="m7 23v-4h-4v42h4v-30-4z" fill="#58595b"/><path d="m57 23v4 4 30h4v-42h-4z" fill="#58595b"/><path d="m61 16v3h-58v-3l29-13z" fill="#006df0"/><path d="m7 19h50v4h-50z" fill="#2488ff"/><path d="m7 23h50v4h-50z" fill="#57a4ff"/><path d="m7 27h50v4h-50z" fill="#9bc9ff"/><path d="m40 59a2 2 0 0 0 2 2h4a2 2 0 0 0 2-2v-2h-8z" fill="#414042"/><path d="m16 59a2 2 0 0 0 2 2h4a2 2 0 0 0 2-2v-2h-8z" fill="#414042"/><path d="m24.432 51.728a3 3 0 0 0 2.91 2.272h9.316a3 3 0 0 0 2.91-2.272l.432-1.728h-16z" fill="#58595b"/><path d="m52 41.5a1.5 1.5 0 0 0 -1.5-1.5h-1.43a2 2 0 0 0 -1.664.891l-1.406 2.109h4.5a1.5 1.5 0 0 0 1.5-1.5z" fill="#ed1c24"/><path d="m14.93 40h-1.43a1.5 1.5 0 0 0 0 3h4.5l-1.406-2.109a2 2 0 0 0 -1.664-.891z" fill="#ed1c24"/><path d="m44 51a2 2 0 0 0 2 2h4v-5l-6 2z" fill="#f1f2f2"/><path d="m20 51v-1l-6-2v5h4a2 2 0 0 0 2-2z" fill="#f1f2f2"/><path d="m45.136 39.545a5.985 5.985 0 0 0 -3.136-3.896v3.351a4 4 0 0 1 -4 4h-20l.243.243a6 6 0 0 0 4.242 1.757h19.03a6 6 0 0 0 4.242-1.757l.243-.243z" fill="#bcbec0"/><g fill="#231f20"><path d="m61.41 15.09-29-13a.979.979 0 0 0 -.82 0l-29 13a1 1 0 0 0 -.59.91v45a1 1 0 0 0 1 1h4a1 1 0 0 0 1-1v-29h48v29a1 1 0 0 0 1 1h4a1 1 0 0 0 1-1v-45a1 1 0 0 0 -.59-.91zm-55.41 44.91h-2v-40h2zm50-30h-48v-2h48zm0-4h-48v-2h48zm0-4h-48v-2h48zm4 38h-2v-40h2zm0-42h-56v-1.35l28-12.55 28 12.55z"/><path d="m27.757 10.757a6 6 0 0 1 8.486 0 1 1 0 1 0 1.414-1.414 8 8 0 0 0 -11.314 0 1 1 0 1 0 1.414 1.414z"/><path d="m32 10a5.006 5.006 0 0 0 -3.532 1.458 1 1 0 1 0 1.4 1.424 3.082 3.082 0 0 1 4.256 0 1 1 0 0 0 1.4-1.424 5.006 5.006 0 0 0 -3.524-1.458z"/><circle cx="32" cy="15" r="2"/><path d="m40 49h-16a1 1 0 0 0 -.97 1.243l.432 1.727a3.993 3.993 0 0 0 3.88 3.03h9.316a3.993 3.993 0 0 0 3.88-3.03l.432-1.727a1 1 0 0 0 -.97-1.243zm-1.4 2.485a2 2 0 0 1 -1.942 1.515h-9.316a2 2 0 0 1 -1.94-1.515l-.121-.485h13.438z"/><path d="m53 41.5a2.5 2.5 0 0 0 -2.5-2.5h-1.43a2.993 2.993 0 0 0 -2.5 1.34l-.15.22-.31-1.26a7 7 0 0 0 -6.79-5.3h-14.64a7 7 0 0 0 -6.79 5.3l-.31 1.26-.15-.22a2.993 2.993 0 0 0 -2.5-1.34h-1.43a2.5 2.5 0 0 0 0 5h.53a4.924 4.924 0 0 0 -1.03 3v8a3.01 3.01 0 0 0 2 2.82v1.18a3.009 3.009 0 0 0 3 3h4a3.009 3.009 0 0 0 3-3v-1h14v1a3.009 3.009 0 0 0 3 3h4a3.009 3.009 0 0 0 3-3v-1.18a3.01 3.01 0 0 0 2-2.82v-8a4.924 4.924 0 0 0 -1.03-3h.53a2.5 2.5 0 0 0 2.5-2.5zm-33.17-1.71a5 5 0 0 1 4.85-3.79h14.64a5 5 0 0 1 4.85 3.79l.72 2.88a4.976 4.976 0 0 1 -3.38 1.33h-19.02a4.976 4.976 0 0 1 -3.38-1.33zm-6.33 2.21a.5.5 0 0 1 0-1h1.43a1 1 0 0 1 .83.45l.37.55zm1.5 7.39 4 1.33v.28a1 1 0 0 1 -1 1h-3zm8 9.61a1 1 0 0 1 -1 1h-4a1 1 0 0 1 -1-1v-1h6zm24 0a1 1 0 0 1 -1 1h-4a1 1 0 0 1 -1-1v-1h6zm2-7h-3a1 1 0 0 1 -1-1v-.28l4-1.33zm0-4.72-5.32 1.77a1.014 1.014 0 0 0 -.68.95v1a3.009 3.009 0 0 0 3 3h3v1a1 1 0 0 1 -1 1h-32a1 1 0 0 1 -1-1v-1h3a3.009 3.009 0 0 0 3-3v-1a1.014 1.014 0 0 0 -.68-.95l-5.32-1.77v-.28a2.985 2.985 0 0 1 2.63-2.96 6.971 6.971 0 0 0 4.86 1.96h19.02a6.971 6.971 0 0 0 4.86-1.96 2.985 2.985 0 0 1 2.63 2.96zm-1.13-5.28.37-.55a1 1 0 0 1 .83-.45h1.43a.5.5 0 0 1 0 1z"/></g></g></svg>