<svg enable-background="new 0 0 64 64" height="512" viewBox="0 0 64 64" width="512" xmlns="http://www.w3.org/2000/svg"><g id="Icons"><g><g><path d="m52 22c-3.261 0-6.154-1.577-7.981-4h-30.019c-3.314 0-6 2.686-6 6v8h48v-8c0-.936-.22-1.818-.602-2.607-1.063.386-2.204.607-3.398.607z" fill="#64c8f0"/></g><g><path d="m56 32h-48c-2.209 0-4 1.791-4 4v4h44v-6h8v6h4v-4c0-2.209-1.791-4-4-4z" fill="#f0f0f0"/></g><g><path d="m24 4-.327 1.307c-.537 2.15-2.216 3.828-4.366 4.366l-1.307.327 1.307.327c2.15.537 3.828 2.216 4.366 4.366l.327 1.307.327-1.307c.537-2.15 2.216-3.828 4.366-4.366l1.307-.327-1.307-.327c-2.15-.537-3.828-2.216-4.366-4.366z" fill="#fab400"/></g><g><path d="m21.307 10.327-1.307-.327 1.307-.327c1.573-.393 2.887-1.4 3.693-2.751-.296-.497-.529-1.036-.673-1.614l-.327-1.308-.327 1.307c-.537 2.15-2.216 3.828-4.366 4.366l-1.307.327 1.307.327c2.15.537 3.828 2.216 4.366 4.366l.327 1.307.327-1.307c.144-.578.377-1.117.673-1.614-.806-1.352-2.12-2.359-3.693-2.752z" fill="#dc9600"/></g><g><path d="m32 12-.369.737c-.194.387-.507.701-.894.894l-.737.369.737.369c.387.194.701.507.894.894l.369.737.369-.737c.194-.387.507-.701.894-.894l.737-.369-.737-.369c-.387-.194-.701-.507-.894-.894z" fill="#fab400"/></g><g><path d="m38 4-.369.737c-.194.387-.507.701-.894.894l-.737.369.737.369c.387.194.701.507.894.894l.369.737.369-.737c.194-.387.507-.701.894-.894l.737-.369-.737-.369c-.387-.194-.701-.507-.894-.894z" fill="#fab400"/></g><g><path d="m18 18h-4c-3.314 0-6 2.686-6 6v8h4v-8c0-3.314 2.686-6 6-6z" fill="#46aad2"/></g><g><path d="m12 32h-4c-2.209 0-4 1.791-4 4v4h4v-4c0-2.209 1.791-4 4-4z" fill="#d2d2d2"/></g><g><path d="m8 48h4v4h-4z" fill="#505050"/></g><g><path d="m28 32h-12v-4c0-1.105.895-2 2-2h8c1.105 0 2 .895 2 2z" fill="#fa6450"/></g><g><path d="m48 32h-12v-4c0-1.105.895-2 2-2h8c1.105 0 2 .895 2 2z" fill="#fa6450"/></g><g><circle cx="52" cy="12" fill="#3cc8b4" r="8"/></g><g><path d="m46 12c0-4.079 3.055-7.438 7-7.931-.328-.041-.661-.069-1-.069-4.418 0-8 3.582-8 8s3.582 8 8 8c.339 0 .672-.028 1-.069-3.945-.493-7-3.852-7-7.931z" fill="#1eaa96"/></g><g><path d="m57 10-6 6-4-4 2-2 2 2 4-4z" fill="#f0f0f0"/></g><g><g><path d="m44 46h4v-6h-44v8h40z" fill="#64c8f0"/></g><g><path d="m56 40h4v6h-4z" fill="#64c8f0"/></g></g><g><path d="m54 48v-12h-4v12h-4v4h12v-4z" fill="#505050"/></g><g><path d="m46 48h2v4h-2z" fill="#3c3c3c"/></g><g><path d="m50 36h2v12h-2z" fill="#3c3c3c"/></g><g><path d="m58.845 57.689c-.556-1.111-.845-2.336-.845-3.578v-2.111h-12v2.111c0 1.242-.289 2.467-.845 3.578l-1.155 2.311h16z" fill="#fab400"/></g><g><path d="m48 54.111v-2.111h-2v2.111c0 1.242-.289 2.467-.845 3.578l-1.155 2.311h2l1.155-2.311c.556-1.111.845-2.336.845-3.578z" fill="#dc9600"/></g><g><path d="m49.5 54h1v6h-1z" fill="#505050"/></g><g><path d="m53.5 54h1v6h-1z" fill="#505050"/></g><g><path d="m4 40h4v8h-4z" fill="#46aad2"/></g></g></g></svg>