<?xml version="1.0" encoding="iso-8859-1"?>
<!-- Generator: Adobe Illustrator 19.0.0, SVG Export Plug-In . SVG Version: 6.00 Build 0)  -->
<svg version="1.1" id="Capa_1" xmlns="http://www.w3.org/2000/svg" xmlns:xlink="http://www.w3.org/1999/xlink" x="0px" y="0px"
	 viewBox="0 0 512 512" style="enable-background:new 0 0 512 512;" xml:space="preserve">
<path style="fill:#F0EFEB;" d="M512,256c0,141.385-114.615,256-256,256c-113.957,0-210.526-74.459-243.702-177.392
	C4.315,309.844,0,283.418,0,256C0,152.377,61.565,63.133,150.11,22.852C182.376,8.171,218.237,0,256,0
	C397.385,0,512,114.615,512,256z"/>
<circle style="fill:#EE0005;" cx="174.03" cy="211.05" r="131.96"/>
<circle style="fill:#0098E2;" cx="337.97" cy="211.05" r="131.96"/>
<path style="fill:#6C69BF;" d="M206.016,211.048c0,41.9,19.532,79.235,49.984,103.407c30.451-24.173,49.984-61.507,49.984-103.407
	S286.451,131.814,256,107.641C225.549,131.815,206.016,169.149,206.016,211.048z"/>
<g>
	<path style="fill:#171614;" d="M119.63,398.795c0-5.775-4.098-9.593-8.663-9.593c-4.377,0-8.662,3.353-8.662,9.687v23.1
		c0,1.583-2.329,3.26-4.937,3.26c-2.887,0-4.843-1.676-4.843-3.26v-37.724c0-1.863,1.956-3.167,4.843-3.167
		c2.329,0,4.378,1.304,4.378,3.167v3.353c2.049-3.633,6.147-7.079,12.387-7.079c5.589,0,10.059,3.819,12.202,9.314
		c3.26-6.334,8.662-9.314,14.064-9.314c8.383,0,16.207,6.613,16.207,18.349v23.1c0,1.583-2.236,3.26-4.937,3.26
		c-2.515,0-4.843-1.676-4.843-3.26v-23.1c0-6.427-4.378-9.78-8.662-9.78c-4.378,0-8.755,3.539-8.755,9.593v23.38
		c0,2.235-2.422,3.167-4.937,3.167c-2.236,0-4.843-0.931-4.843-3.167v-23.286H119.63z"/>
	<path style="fill:#171614;" d="M204.117,398.608v23.38c0,1.77-2.049,3.26-4.75,3.26c-2.515,0-4.471-1.49-4.471-3.26v-3.26
		c-3.26,3.819-7.731,7.265-14.064,7.265c-6.799,0-12.388-3.912-12.388-12.295c0-10.525,8.849-13.319,21.796-13.319h4.098v-1.677
		c0-4.75-2.421-10.059-9.221-10.059c-6.8,0-8.476,2.794-10.339,2.794c-2.329,0-3.539-2.701-3.539-4.937
		c0-3.353,7.731-5.961,14.064-5.961C198.993,380.538,204.117,389.293,204.117,398.608z M194.335,405.78h-2.329
		c-7.078,0-13.692,0.745-13.692,6.706c0,4.191,2.608,6.054,6.054,6.054c4.657,0,9.966-4.843,9.966-9.314L194.335,405.78
		L194.335,405.78L194.335,405.78z"/>
	<path style="fill:#171614;" d="M255.068,397.77c0,7.731-4.285,8.01-8.476,8.01h-19.654v2.142c0,6.24,4.937,10.152,12.108,10.152
		c6.613,0,8.848-3.539,11.363-3.539c2.329,0,3.819,2.701,3.819,4.378c0,2.794-6.054,7.079-15.462,7.079
		c-12.667,0-21.61-7.451-21.61-18.535v-8.849c0-9.78,8.662-18.069,19.374-18.069C246.499,380.538,255.068,387.617,255.068,397.77z
		 M242.4,399.726c2.701,0,3.446-0.559,3.446-2.794c0-4.937-4.098-8.942-9.407-8.942c-5.123,0-9.5,3.633-9.5,8.755v2.981H242.4
		L242.4,399.726z"/>
	<path style="fill:#171614;" d="M288.789,413.418c0-9.78-22.448-4.005-22.448-19.467c0-6.427,4.192-13.412,15.928-13.412
		c6.986,0,13.971,2.515,13.971,5.495c0,1.397-1.397,4.75-3.725,4.75c-1.956,0-4.844-2.701-10.059-2.701
		c-5.495,0-7.545,3.074-7.545,5.402c0,8.196,22.635,2.794,22.635,19.56c0,7.917-5.868,12.947-16.393,12.947
		c-9.221,0-16.021-3.912-16.021-7.451c0-1.676,1.397-4.378,3.353-4.378c2.422,0,4.378,4.285,12.388,4.285
		C287.019,418.448,288.789,415.933,288.789,413.418z"/>
	<path style="fill:#171614;" d="M319.807,410.717c0,4.471,1.677,6.148,6.52,6.148h3.26c2.794,0,4.191,2.049,4.191,4.191
		s-1.397,4.191-4.191,4.191h-3.26c-10.618,0-16.3-4.378-16.3-14.53v-46.665c0-1.863,2.515-3.167,4.844-3.167
		c2.421,0,4.936,1.304,4.936,3.167v17.045h11.363c1.676,0,2.701,1.77,2.701,3.633s-1.024,3.632-2.701,3.632h-11.363V410.717
		L319.807,410.717z"/>
	<path style="fill:#171614;" d="M366.567,389.2c-5.682,0-11.27,5.216-11.27,13.692v19.094c0,1.583-2.236,3.26-5.029,3.26
		c-2.794,0-4.75-1.676-4.75-3.26v-37.724c0-1.863,1.956-3.167,4.75-3.167c2.421,0,4.471,1.304,4.471,3.167v4.098
		c1.956-3.912,6.334-7.824,11.829-7.824h2.981c1.956,0,3.726,1.956,3.726,4.285c0,2.422-1.77,4.378-3.726,4.378h-2.982
		L366.567,389.2L366.567,389.2z"/>
	<path style="fill:#171614;" d="M419.474,398.888v8.569c0,9.687-9.034,18.535-19.28,18.535c-10.339,0-19.281-8.755-19.281-18.535
		v-8.569c0-9.78,8.663-18.349,19.281-18.349C410.44,380.538,419.474,388.828,419.474,398.888z M409.694,398.888
		c0-4.843-4.285-9.687-9.5-9.687c-5.309,0-9.501,4.843-9.501,9.687v8.569c0,5.03,4.192,9.873,9.501,9.873
		c5.216,0,9.5-4.843,9.5-9.873V398.888z"/>
</g>
<g>
</g>
<g>
</g>
<g>
</g>
<g>
</g>
<g>
</g>
<g>
</g>
<g>
</g>
<g>
</g>
<g>
</g>
<g>
</g>
<g>
</g>
<g>
</g>
<g>
</g>
<g>
</g>
<g>
</g>
</svg>
