<svg id="Capa_1" enable-background="new 0 0 512 512" height="512" viewBox="0 0 512 512" width="512" xmlns="http://www.w3.org/2000/svg"><g><g><path d="m7.5 158h497v201.5h-497z" fill="#f7f6f7"/><g fill="#edebed"><path d="m474.5 158h30v191.5h-30z"/><path d="m327.732 158h30v191.5h-30z"/><path d="m171.961 158h30v191.5h-30z"/></g><g><g><path d="m7.5 158h497v-32c0-5.523-4.477-10-10-10h-477c-5.523 0-10 4.477-10 10z" fill="#655e67"/><path d="m494.5 116h-30c5.523 0 10 4.477 10 10v32h30v-32c0-5.523-4.477-10-10-10z" fill="#544f56"/><g><path d="m394.315 70.815c0-18.37-14.945-33.315-33.315-33.315s-33.315 14.945-33.315 33.315v298.685c0 8.284-6.716 15-15 15s-15-6.716-15-15v-298.685c0-34.912 28.403-63.315 63.315-63.315s63.315 28.403 63.315 63.315v45.185h-30z" fill="#e2dfe3"/></g><path d="m327.732 116h30v42h-30z" fill="#544f56"/><path d="m171.961 116h30v42h-30z" fill="#544f56"/><g><path d="m238.5 70.815c0-18.37-14.945-33.315-33.315-33.315s-33.315 14.945-33.315 33.315v298.685c0 8.284-6.716 15-15 15s-15-6.716-15-15v-298.685c0-34.912 28.403-63.315 63.315-63.315s63.315 28.403 63.315 63.315v45.185h-30z" fill="#e2dfe3"/></g><g fill="#d3ced4"><circle cx="452.5" cy="213.5" r="22"/><circle cx="59.5" cy="213.5" r="22"/></g></g></g><path d="m17.5 512h477c5.523 0 10-4.477 10-10v-167.5c-41.418 0-41.418 20-82.837 20s-41.418-20-82.837-20c-41.417 0-41.417 20-82.833 20-41.415 0-41.415-20-82.831-20s-41.416 20-82.832 20c-41.415 0-41.415-20-82.831-20v167.5c.001 5.523 4.478 10 10.001 10z" fill="#9dc7fb"/></g><path d="m89 213.5c0-16.267-13.234-29.5-29.5-29.5s-29.5 13.233-29.5 29.5 13.234 29.5 29.5 29.5 29.5-13.233 29.5-29.5zm-44 0c0-7.995 6.505-14.5 14.5-14.5s14.5 6.505 14.5 14.5-6.505 14.5-14.5 14.5-14.5-6.505-14.5-14.5zm449.5-105h-62.68v-37.68c0-39.05-31.77-70.82-70.82-70.82s-70.82 31.77-70.82 70.82v37.68h-14.18v-37.68c0-39.05-31.77-70.82-70.82-70.82-39.045 0-70.81 31.77-70.81 70.82v37.68h-116.87c-9.649 0-17.5 7.851-17.5 17.5v136.531c0 4.143 3.358 7.5 7.5 7.5s7.5-3.357 7.5-7.5v-97.031h119.37v169.47c-2.044.922-3.988 1.86-5.885 2.776-9.854 4.759-19.162 9.254-38.154 9.254s-28.3-4.495-38.154-9.254c-9.201-4.443-19.489-9.407-37.177-10.516v-29.699c0-4.143-3.358-7.5-7.5-7.5s-7.5 3.357-7.5 7.5v206.969c0 4.143 3.358 7.5 7.5 7.5s7.5-3.357 7.5-7.5v-12.232c14.122 1.021 22.196 4.902 30.654 8.986 10.431 5.037 22.253 10.746 44.677 10.746s34.246-5.709 44.677-10.746c9.855-4.759 19.163-9.254 38.155-9.254s28.3 4.495 38.154 9.254c10.431 5.037 22.253 10.746 44.676 10.746 22.424 0 34.247-5.709 44.678-10.746 9.855-4.759 19.163-9.254 38.155-9.254 18.993 0 28.302 4.495 38.157 9.254 10.431 5.037 22.254 10.746 44.68 10.746s34.249-5.709 44.68-10.746c8.459-4.084 16.534-7.966 30.657-8.986v12.232c0 4.143 3.358 7.5 7.5 7.5s7.5-3.357 7.5-7.5v-378.5c0-9.649-7.851-17.5-17.5-17.5zm-189.32-37.68c0-30.779 25.041-55.82 55.82-55.82s55.82 25.041 55.82 55.82v37.68h-15v-37.68c0-22.508-18.312-40.82-40.82-40.82s-40.82 18.312-40.82 40.82v257.741c-5.807 1.056-10.675 2.561-15 4.242zm81.64 0v37.68h-51.64v-37.68c0-14.237 11.583-25.82 25.82-25.82s25.82 11.583 25.82 25.82zm-96.64 52.68v27h-110.81v-27zm-110.81 147v-45h110.81v45zm110.81 15v54.138c-8.564 3.992-17.746 7.362-34.187 7.362-18.991 0-28.299-4.495-38.154-9.254-9.423-4.551-19.984-9.648-38.469-10.591v-41.655zm-110.81-75v-45h110.81v45zm0-102v-37.68c0-14.237 11.578-25.82 25.81-25.82 14.237 0 25.82 11.583 25.82 25.82v37.68zm-30-37.68c0-30.779 25.036-55.82 55.81-55.82 30.779 0 55.82 25.041 55.82 55.82v37.68h-15v-37.68c0-22.508-18.312-40.82-40.82-40.82-22.503 0-40.81 18.312-40.81 40.82v256.5c-5.711.427-10.638 1.26-15 2.345zm-134.37 79.68v-24.5c0-1.379 1.122-2.5 2.5-2.5h116.87v27zm482 326.73c-17.689 1.109-27.978 6.073-37.18 10.516-9.855 4.759-19.164 9.254-38.157 9.254s-28.302-4.495-38.157-9.254c-10.431-5.037-22.255-10.746-44.68-10.746-22.424 0-34.247 5.709-44.678 10.746-9.855 4.759-19.163 9.254-38.155 9.254-18.991 0-28.299-4.495-38.154-9.254-10.43-5.037-22.253-10.746-44.676-10.746-22.424 0-34.247 5.709-44.678 10.746-9.854 4.759-19.162 9.254-38.154 9.254s-28.3-4.495-38.154-9.254c-9.201-4.443-19.489-9.407-37.177-10.516v-59.963c14.122 1.021 22.196 4.902 30.654 8.986 10.431 5.038 22.253 10.747 44.677 10.747s34.246-5.709 44.677-10.746c9.855-4.759 19.163-9.254 38.155-9.254s28.3 4.495 38.154 9.254c10.431 5.037 22.253 10.746 44.676 10.746 22.424 0 34.247-5.709 44.678-10.746 9.855-4.759 19.163-9.254 38.155-9.254 18.993 0 28.302 4.495 38.157 9.254 10.431 5.037 22.254 10.746 44.68 10.746s34.249-5.709 44.68-10.746c8.459-4.084 16.534-7.966 30.657-8.986zm0-75c-17.689 1.109-27.978 6.073-37.18 10.516-9.855 4.759-19.164 9.254-38.157 9.254s-28.302-4.495-38.157-9.254c-10.431-5.037-22.255-10.746-44.68-10.746-22.424 0-34.247 5.709-44.678 10.746-9.855 4.759-19.163 9.254-38.155 9.254-18.991 0-28.299-4.495-38.154-9.254-10.43-5.037-22.253-10.746-44.676-10.746-22.424 0-34.247 5.709-44.678 10.746-9.854 4.759-19.162 9.254-38.154 9.254s-28.3-4.495-38.154-9.254c-9.201-4.443-19.489-9.407-37.177-10.516v-59.963c14.122 1.021 22.196 4.902 30.654 8.986 10.431 5.038 22.253 10.747 44.677 10.747s34.246-5.709 44.677-10.746c9.855-4.759 19.163-9.254 38.155-9.254s28.3 4.495 38.154 9.254c10.431 5.037 22.253 10.746 44.676 10.746 22.424 0 34.247-5.709 44.678-10.746 9.855-4.759 19.163-9.254 38.155-9.254 18.993 0 28.302 4.495 38.157 9.254 10.431 5.037 22.254 10.746 44.68 10.746s34.249-5.709 44.68-10.746c8.459-4.084 16.534-7.966 30.657-8.986zm0-251.73h-134c-4.142 0-7.5 3.357-7.5 7.5s3.358 7.5 7.5 7.5h134v161.73c-17.689 1.109-27.978 6.073-37.18 10.516-9.855 4.759-19.164 9.254-38.157 9.254s-28.302-4.495-38.157-9.254c-10.431-5.037-22.255-10.746-44.68-10.746-1.25 0-2.461.021-3.646.055v-203.555h159.32c1.378 0 2.5 1.121 2.5 2.5zm-44.5 92.5c16.266 0 29.5-13.233 29.5-29.5s-13.234-29.5-29.5-29.5-29.5 13.233-29.5 29.5 13.234 29.5 29.5 29.5zm0-44c7.995 0 14.5 6.505 14.5 14.5s-6.505 14.5-14.5 14.5-14.5-6.505-14.5-14.5 6.505-14.5 14.5-14.5z"/></g></svg>