<svg id="Capa_1" enable-background="new 0 0 512 512" height="512" viewBox="0 0 512 512" width="512" xmlns="http://www.w3.org/2000/svg"><g><g><path clip-rule="evenodd" d="m93.195 109.367v64.626h76.477v-64.626c0-9.418-6.718-17.337-15.647-19.204v-39.624h-45.183v39.624c-8.9 1.867-15.647 9.786-15.647 19.204z" fill="#a0e5a5" fill-rule="evenodd"/></g><g><path clip-rule="evenodd" d="m108.842 10.547h45.183v39.992h-45.183z" fill="#ffcd69" fill-rule="evenodd"/></g><g><path clip-rule="evenodd" d="m281.951 79.218h-62.163v21.919c0 17.055 14.003 30.998 31.095 30.998s31.067-13.943 31.067-30.998v-21.919z" fill="#ffcd69" fill-rule="evenodd"/></g><g><path clip-rule="evenodd" d="m319.792 79.218v21.919c0 17.055 13.975 30.998 31.095 30.998 17.093 0 31.067-13.943 31.067-30.998v-21.919z" fill="#ffcd69" fill-rule="evenodd"/></g><g><path clip-rule="evenodd" d="m350.888 173.994h-100.004-81.211-76.478-73.472c-5.357 0-9.723 4.356-9.723 9.701v26.247c0 5.345 4.365 9.729 9.723 9.729h21.401 42.009 291.793 42.009 21.401c5.357 0 9.723-4.384 9.723-9.729v-9.956-25.992z" fill="#80b6ff" fill-rule="evenodd"/></g><g><path clip-rule="evenodd" d="m155.131 304.35c-39.769 0-71.999 32.186-71.999 71.867h144.026c0-39.681-32.258-71.867-72.027-71.867z" fill="#dae6e6" fill-rule="evenodd"/></g><g><path clip-rule="evenodd" d="m275.885 327.4h99.041v48.816h-99.041z" fill="#dae6e6" fill-rule="evenodd"/></g><g><path clip-rule="evenodd" d="m94.357 421.893c-22.053 0-39.939 17.846-39.939 39.851 0 20.76 15.874 37.814 36.198 39.709h7.512c20.296-1.895 36.198-18.95 36.198-39.709-.001-22.004-17.887-39.851-39.969-39.851z" fill="#dae6e6" fill-rule="evenodd"/></g><g><path clip-rule="evenodd" d="m353.694 421.893c-22.053 0-39.939 17.846-39.939 39.851 0 20.76 15.874 37.814 36.198 39.709h7.512c20.296-1.895 36.198-18.95 36.198-39.709-.001-22.004-17.887-39.851-39.969-39.851z" fill="#dae6e6" fill-rule="evenodd"/></g><g><path clip-rule="evenodd" d="m374.925 376.216h-99.041-48.727-144.025-42.008-21.401c-5.357 0-9.723 4.356-9.723 9.701v26.247c0 5.345 4.365 9.729 9.723 9.729h74.635 259.337 84.641c5.357 0 9.723-4.384 9.723-9.729v-26.247c0-5.345-4.365-9.701-9.723-9.701h-21.401z" fill="#80b6ff" fill-rule="evenodd"/></g><g><path clip-rule="evenodd" d="m374.925 219.671v107.729 48.816h42.009v-156.545z" fill="#bfdbff" fill-rule="evenodd"/></g><g><path clip-rule="evenodd" d="m41.124 219.671h42.009v156.546h-42.009z" fill="#bfdbff" fill-rule="evenodd"/></g><g><path d="m343.694 461.772c0 5.522 4.478 10 10 10s10-4.478 10-10v-.057c0-5.522-4.478-9.972-10-9.972s-10 4.507-10 10.029z"/><path d="m84.357 461.772c0 5.522 4.477 10 10 10s10-4.478 10-10v-.057c0-5.522-4.477-9.972-10-9.972s-10 4.507-10 10.029z"/><path d="m502 117.355h-53.942c-5.522 0-10 4.478-10 10v36.639h-77.17v-23.094c17.827-4.47 31.067-20.6 31.067-39.763v-21.919c0-5.522-4.478-10-10-10h-62.163c-5.522 0-10 4.478-10 10v21.919c0 19.166 13.253 35.297 31.096 39.765v23.093h-80.004v-23.095c17.826-4.47 31.066-20.6 31.066-39.763v-21.919c0-5.522-4.478-10-10-10h-62.162c-5.523 0-10 4.478-10 10v21.919c0 19.166 13.253 35.297 31.096 39.765v23.093h-61.211v-54.627c0-11.055-6.243-21.012-15.647-26.085v-72.906c0-5.522-4.477-10-10-10h-45.183c-5.523 0-10 4.478-10 10v72.908c-9.404 5.077-15.647 15.033-15.647 26.082v54.627h-63.473c-10.875 0-19.723 8.838-19.723 19.7v26.247c0 10.879 8.848 19.729 19.723 19.729h11.401v136.546h-11.401c-10.875.001-19.723 8.839-19.723 19.702v26.246c0 10.879 8.848 19.729 19.723 19.729h34.65c-6.249 8.329-9.955 18.666-9.955 29.851 0 27.503 22.403 49.879 49.939 49.879 27.552 0 49.968-22.376 49.968-49.879 0-11.185-3.708-21.522-9.961-29.851h179.346c-6.249 8.329-9.955 18.666-9.955 29.851 0 27.503 22.402 49.879 49.939 49.879 27.553 0 49.968-22.376 49.968-49.879 0-11.185-3.708-21.522-9.96-29.851h44.633c10.875 0 19.723-8.851 19.723-19.729v-26.246c0-10.863-8.848-19.701-19.723-19.701h-11.401v-136.546h11.401c10.875 0 19.723-8.851 19.723-19.729v-72.586h43.942c5.522 0 10-4.478 10-10s-4.478-10.001-10-10.001zm-172.208-16.218v-11.919h42.163v11.919c0 11.578-9.451 20.998-21.067 20.998-11.632 0-21.096-9.42-21.096-20.998zm-100.004 0v-11.919h42.162v11.919c0 11.578-9.45 20.998-21.066 20.998-11.633 0-21.096-9.42-21.096-20.998zm-110.946-80.76h25.183v20.162h-25.183zm-15.647 88.99c0-4.521 3.238-8.481 7.7-9.417 4.631-.972 7.947-5.056 7.947-9.787v-29.624h25.183v29.624c0 4.734 3.319 8.819 7.953 9.788 4.458.933 7.694 4.893 7.694 9.416v54.627h-56.477zm21.13 352.377c0 16.476-13.443 29.879-29.968 29.879-16.509 0-29.939-13.403-29.939-29.879 0-16.101 12.829-29.26 28.821-29.851h2.239c16.006.591 28.847 13.75 28.847 29.851zm259.337 0c0 16.476-13.443 29.879-29.968 29.879-16.509 0-29.939-13.403-29.939-29.879 0-16.101 12.829-29.26 28.821-29.851h2.239c16.006.591 28.847 13.75 28.847 29.851zm54.396-75.527v25.677h-418.058v-25.677zm-386.934-20v-136.546h22.008v136.546zm42.818 0c4.805-29.375 30.415-51.867 61.189-51.867 30.789 0 56.411 22.492 61.218 51.867zm191.943 0v-28.817h79.04v28.816h-79.04zm99.04 0v-136.546h22.009v136.546zm53.133-156.546h-164.129c-5.522 0-10 4.478-10 10s4.478 10 10 10h90.996v87.729h-89.04c-5.522 0-10 4.478-10 10v38.816h-29.357c-4.559-37.162-34.156-66.696-71.397-71.237v-7.006c0-5.522-4.477-10-10-10s-10 4.478-10 10v7.007c-20.688 2.524-39.011 12.763-51.999 27.749v-93.058h90.997c5.523 0 10-4.478 10-10s-4.477-10-10-10h-164.129v-25.677h418.058z"/><path d="m229.029 229.671h.057c5.523 0 9.972-4.478 9.972-10s-4.505-10-10.028-10-10 4.478-10 10 4.476 10 9.999 10z"/></g></g></svg>