<svg height="512" viewBox="0 0 60 56" width="512" xmlns="http://www.w3.org/2000/svg"><g id="Page-1" fill="none" fill-rule="evenodd"><g id="023---Clean-Towels" fill-rule="nonzero"><path id="Shape" d="m43 21c-.0075002 2.2803248-1.2996557 4.361701-3.34 5.38h-.01c-.8230213.4101496-1.7304453.6224526-2.65.62h-30c-3.3137085 0-6-2.6862915-6-6-.00481393-1.5919979.62919787-3.1193899 1.76-4.24.7296294-.7411966 1.64478605-1.2730235 2.65-1.54l.02-.01c.51134771-.1410741 1.03955169-.2117256 1.57-.21h30c3.3137085 0 6 2.6862915 6 6z" fill="#e8edfc"/><path id="Shape" d="m37 15-3-.0000012c3.3137085.0000012 6 2.6862927 6 6.0000012-.0075002 2.2803248-1.2996557 4.361701-3.34 5.38h-.01c-.8230213.4101496-1.7304453.6224526-2.65.620021l3-.000021c.9195547.0024526 1.8269787-.2098504 2.65-.62h.01c2.500815-1.2347123 3.8210834-4.0298424 3.1862811-6.7456509-.6348024-2.7158086-3.0572692-4.6360989-5.8462811-4.6343491z" fill="#cad9fc"/><path id="Shape" d="m43 33c-.0075002 2.2803248-1.2996557 4.361701-3.34 5.38h-.01c-.8230213.4101496-1.7304453.6224526-2.65.62h-30c-3.3137085 0-6-2.6862915-6-6 .00495634-3.3116533 2.68834666-5.9950437 6-6h30c3.3137085 0 6 2.6862915 6 6z" fill="#cad9fc"/><path id="Shape" d="m37 27-3-.0000012c3.3137085.0000012 6 2.6862927 6 6.0000012-.0075002 2.2803248-1.2996557 4.361701-3.34 5.38h-.01c-.8230213.4101496-1.7304453.6224526-2.65.620021l3-.000021c.9195547.0024526 1.8269787-.2098504 2.65-.62h.01c2.500815-1.2347123 3.8210834-4.0298424 3.1862811-6.7456509-.6348024-2.7158086-3.0572692-4.6360989-5.8462811-4.6343491z" fill="#cad9fc"/><path id="Shape" d="m43 45c-.0075002 2.2803248-1.2996557 4.361701-3.34 5.38h-.01c-.8230213.4101496-1.7304453.6224526-2.65.62h-30c-3.3137085 0-6-2.6862915-6-6 .00495634-3.3116533 2.68834666-5.9950437 6-6h30c1.5912989 0 3.1174224.632141 4.2426407 1.7573593s1.7573593 2.6513418 1.7573593 4.2426407z" fill="#a4c2f7"/><path id="Shape" d="m37 39-3-.0000012c3.3137085.0000012 6 2.6862927 6 6.0000012-.0075002 2.2803248-1.2996557 4.361701-3.34 5.38h-.01c-.8230213.4101496-1.7304453.6224526-2.65.620021l3-.000021c.9195547.0024526 1.8269787-.2098504 2.65-.62h.01c2.500815-1.2347123 3.8210834-4.0298424 3.1862811-6.7456509-.6348024-2.7158086-3.0572692-4.6360989-5.8462811-4.6343491z" fill="#a4c2f7"/><path id="Shape" d="m59 15c.0048139 1.5919979-.6291979 3.1193899-1.76 4.24-.467594.4718307-1.0120216.8607075-1.61 1.15-.47.17-1.07.4-1.81.67-2.67 1.01-7.19 2.71-14.16 5.32 2.500815-1.2347123 3.8210834-4.0298424 3.1862811-6.7456509-.6348024-2.7158086-3.0572692-4.6360989-5.8462811-4.6343491h-30c-.53044831-.0017256-1.05865229.0689259-1.57.21 0 0 15.62-5.9 15.99-5.99l.04-.01c.5011137-.14106404 1.0194129-.2117412 1.54-.21h30c3.3137085 0 6 2.6862915 6 6z" fill="#e8edfc"/><path id="Shape" d="m53 9h-3c3.3137085 0 6 2.6862915 6 6 .0048139 1.5919979-.6291979 3.1193899-1.76 4.24-.467594.4718307-1.0120216.8607075-1.61 1.15-.47.17-1.07.4-1.81.67-1.923.727-4.813 1.815-8.88 3.341-.5818809.8405501-1.3659661 1.5211224-2.28 1.979 6.97-2.61 11.49-4.31 14.16-5.32.74-.27 1.34-.5 1.81-.67.5979784-.2892925 1.142406-.6781693 1.61-1.15 1.1308021-1.1206101 1.7648139-2.6480021 1.76-4.24 0-3.3137085-2.6862915-6-6-6z" fill="#cad9fc"/><path id="Shape" d="m59 27c.0048139 1.5919979-.6291979 3.1193899-1.76 4.24-.467594.4718307-1.0120216.8607075-1.61 1.15l-1.82.68-14.15 5.31c2.500815-1.2347123 3.8210834-4.0298424 3.1862811-6.7456509-.6348024-2.7158086-3.0572692-4.6360989-5.8462811-4.6343491.9195547.0024526 1.8269787-.2098504 2.65-.62h.01c6.97-2.61 11.49-4.31 14.16-5.32 2.9660121.411823 5.1755476 2.9455374 5.18 5.94z" fill="#cad9fc"/><path id="Shape" d="m53.82 21.06-1.339.506c1.7912224.8061279 3.0710778 2.4420437 3.422473 4.3746174s-.2706711 3.9143113-1.663473 5.2993826c-.467594.4718307-1.0120216.8607075-1.61 1.15l-1.82.68-8.867 3.33c-.5828811.8410402-1.3679727 1.5219344-2.283 1.98l14.15-5.31 1.82-.68c.5979784-.2892925 1.142406-.6781693 1.61-1.15 1.1308021-1.1206101 1.7648139-2.6480021 1.76-4.24-.0044524-2.9944626-2.2139879-5.528177-5.18-5.94z" fill="#a4c2f7"/><path id="Shape" d="m59 39c-.0075002 2.2803248-1.2996557 4.361701-3.34 5.38l-16 6c2.500815-1.2347123 3.8210834-4.0298424 3.1862811-6.7456509-.6348024-2.7158086-3.0572692-4.6360989-5.8462811-4.6343491.9195547.0024526 1.8269787-.2098504 2.65-.62h.01l14.15-5.31c2.9699697.3998 5.1872663 2.933243 5.19 5.93z" fill="#a4c2f7"/><path id="Shape" d="m53.81 33.07-1.335.5c2.1020162.9568257 3.4662364 3.0373817 3.5057556 5.3465863s-1.2527105 4.4352225-3.3207556 5.4634137l-10.718 4.02c-.5826021.8409124-1.3673374 1.5217957-2.282 1.98l16-6c2.3632736-1.1659116 3.6872037-3.7391814 3.2618079-6.3398448-.4253959-2.6006634-2.5002197-4.617992-5.1118079-4.9701552z" fill="#7facfa"/><path id="Shape" d="m5.43 15.21-.02.01c-1.00521395.2669765-1.9203706.7988034-2.65 1.54-1.13080213 1.1206101-1.76481393 2.6480021-1.76 4.24 0 3.3137085 2.6862915 6 6 6-3.31165334.0049563-5.99504366 2.6883467-6 6 0 3.3137085 2.6862915 6 6 6-3.31165334.0049563-5.99504366 2.6883467-6 6 0 3.3137085 2.6862915 6 6 6h3c-3.3137085 0-6-2.6862915-6-6 .00495634-3.3116533 2.68834666-5.9950437 6-6-3.3137085 0-6-2.6862915-6-6 .00495634-3.3116533 2.68834666-5.9950437 6-6-3.3137085 0-6-2.6862915-6-6-.00481393-1.5919979.62919787-3.1193899 1.76-4.24.7296294-.7411966 1.64478605-1.2730235 2.65-1.54l.02-.01" fill="#fff"/><path id="Rectangle-path" d="m7 50h8v2h-8z" fill="#fff"/><g fill="#428dff"><path id="Shape" d="m11.038 52c-.5522847.0030375-1.0024624-.4422153-1.0054999-.9945-.0030376-.5522847.4422152-1.0024624.9944999-1.0055h.011c.5522847 0 1 .4477153 1 1s-.4477153 1-1 1z"/><path id="Shape" d="m60 15c-.0044086-3.8641657-3.1358343-6.99559136-7-7h-30c-.6139894-.00218588-1.2252595.08162814-1.816.249-.374.09-10.252 3.814-16.107 6.025h-.008c-1.14116638.3184781-2.17962802.9288716-3.013 1.771-1.32380792 1.3079591-2.06491739 3.0940473-2.056 4.955.00165998 2.4601953 1.29579169 4.7385962 3.408 6-2.11132439 1.2622685-3.40514467 3.5401211-3.408 6 .00390728 2.4608899 1.29975589 4.7389712 3.413 6-2.70439735 1.6118406-3.99827342 4.8321361-3.160877 7.8670269.83739642 3.0348909 3.59957811 5.1360264 6.747877 5.1329731.55228475 0 1-.4477153 1-1s-.44771525-1-1-1c-2.76142375 0-5-2.2385763-5-5s2.23857625-5 5-5h30c2.7614237 0 5 2.2385763 5 5s-2.2385763 5-5 5h-22c-.5522847 0-1 .4477153-1 1s.4477153 1 1 1h22c1.0345827-.0008753 2.0558617-.2332171 2.989-.68.0073256.000475.0146744.000475.022 0l16.089-6.043c2.2977155-1.1319406 3.7914434-3.4308486 3.8922096-5.9902689s-1.2075989-4.9686487-3.4092096-6.2777311c.4990156-.2892091.9562333-.6451593 1.359-1.058 1.3235485-1.3066543 2.0653128-3.0911418 2.058-4.951-.0087489-2.4572471-1.3022299-4.7308908-3.41-5.994.4968092-.2890498.9522661-.6439294 1.354-1.055 1.3228143-1.3069869 2.0638404-3.0914326 2.056-4.951zm-38.265-4.829c.4117593-.1150824.837464-.17262823 1.265-.171h30c2.7600532.0033061 4.9966939 2.2399468 5 5 .0061262 1.3270502-.5226866 2.6005988-1.467 3.533-.3397521.3536115-.7374876.6465017-1.176.866-.054.029-.1.056-.151.082-1.349.5-3.724 1.392-7.405 2.774l-4.444 1.669c.9990268-2.1666289.8248438-4.6930323-.4620736-6.7020567s-3.5090654-3.2235663-5.8949264-3.2219433h-25.528c4.979-1.875 9.856-3.7 10.263-3.829zm-19.735 10.829c-.00570197-1.3294208.52499102-2.6049587 1.472-3.538.60445009-.6136859 1.36245943-1.0539875 2.195-1.275.025-.008.054-.017.083-.028.40802507-.1068972.82820661-.1603443 1.25-.159h30c2.7600532.0033061 4.9966939 2.2399468 5 5-.0072792 1.8708829-1.0513118 3.583466-2.711 4.447-.0292845.0112195-.0579873.0239022-.086.038-.6837757.3420796-1.4384377.5184986-2.203.515h-30c-2.76005315-.0033061-4.99669388-2.2399468-5-5zm5 17c-2.76005315-.0033061-4.99669388-2.2399468-5-5 .0049535-2.7593693 2.24063066-4.9950465 5-5h30c2.7600532.0033061 4.9966939 2.2399468 5 5-.0072792 1.8708829-1.0513118 3.583466-2.711 4.447-.0292845.0112195-.0579873.0239022-.086.038-.6837757.3420796-1.4384377.5184986-2.203.515zm51 1c.0060505 1.3268379-.5223408 2.6002392-1.466 3.533-.3595423.3640232-.7726533.6709057-1.225.91l-11.959 4.485c1.4901835-3.2024841.3463936-7.0133977-2.661-8.866l13.2-4.952c2.3715385.4231372 4.1015967 2.4810269 4.111 4.89zm0-12c.0061262 1.3270502-.5226866 2.6005988-1.467 3.533-.3397521.3536115-.7374876.6465017-1.176.866-.055.03-.107.057-.153.083l-11.848 4.443c1.4810566-3.2036228.3360535-7.0087083-2.667-8.863l7.811-2.934c2.282-.857 4.055-1.523 5.4-2.026 2.3673388.433176 4.0902095 2.4913761 4.1 4.898z"/><path id="Shape" d="m39 21c0-.5522847-.4477153-1-1-1h-32c-.55228475 0-1 .4477153-1 1s.44771525 1 1 1h32c.5522847 0 1-.4477153 1-1z"/><path id="Shape" d="m39 33c0-.5522847-.4477153-1-1-1h-32c-.55228475 0-1 .4477153-1 1s.44771525 1 1 1h32c.5522847 0 1-.4477153 1-1z"/><path id="Shape" d="m39 45c0-.5522847-.4477153-1-1-1h-32c-.55228475 0-1 .4477153-1 1s.44771525 1 1 1h32c.5522847 0 1-.4477153 1-1z"/><path id="Shape" d="m10 0c-.55228475 0-1 .44771525-1 1v2c0 .55228475.44771525 1 1 1 .5522847 0 1-.44771525 1-1v-2c0-.55228475-.4477153-1-1-1z"/><path id="Shape" d="m9 9c0 .55228475.44771525 1 1 1 .5522847 0 1-.44771525 1-1v-2c0-.55228475-.4477153-1-1-1-.55228475 0-1 .44771525-1 1z"/><path id="Shape" d="m8 4h-2c-.55228475 0-1 .44771525-1 1s.44771525 1 1 1h2c.55228475 0 1-.44771525 1-1s-.44771525-1-1-1z"/><path id="Shape" d="m12 6h2c.5522847 0 1-.44771525 1-1s-.4477153-1-1-1h-2c-.5522847 0-1 .44771525-1 1s.4477153 1 1 1z"/><path id="Shape" d="m58.207 52.793c-.3923789-.3789722-1.0160848-.3735524-1.4018186.0121814s-.3911536 1.0094397-.0121814 1.4018186l1.5 1.5c.3923789.3789722 1.0160848.3735524 1.4018186-.0121814s.3911536-1.0094397.0121814-1.4018186z"/><path id="Shape" d="m53.793 51.207c.3923789.3789722 1.0160848.3735524 1.4018186-.0121814s.3911536-1.0094397.0121814-1.4018186l-1.5-1.5c-.3923789-.3789722-1.0160848-.3735524-1.4018186.0121814s-.3911536 1.0094397-.0121814 1.4018186z"/><path id="Shape" d="m52.293 55.707c.3904999.3903819 1.0235001.3903819 1.414 0l1.5-1.5c.3789722-.3923789.3735524-1.0160848-.0121814-1.4018186s-1.0094397-.3911536-1.4018186-.0121814l-1.5 1.5c-.3903819.3904999-.3903819 1.0235001 0 1.414z"/><path id="Shape" d="m58.293 48.293-1.5 1.5c-.2599566.2510745-.3642126.6228779-.2726972.9725073.0915155.3496295.3645604.6226744.7141899.7141899.3496294.0915154.7214328-.0127406.9725073-.2726972l1.5-1.5c.3789722-.3923789.3735524-1.0160848-.0121814-1.4018186s-1.0094397-.3911536-1.4018186-.0121814z"/></g></g></g></svg>