<svg id="color" height="512" viewBox="0 0 24 24" width="512" xmlns="http://www.w3.org/2000/svg"><path d="m16 22h-2v-2h-4v2h-2c-.552 0-1 .448-1 1s.448 1 1 1h8c.553 0 1-.448 1-1s-.447-1-1-1z" fill="#90a4ae"/><path d="m22.25 4h-20.5c-.965 0-1.75.785-1.75 1.75v12.5c0 .965.785 1.75 1.75 1.75h20.5c.965 0 1.75-.785 1.75-1.75v-12.5c0-.965-.785-1.75-1.75-1.75z" fill="#607d8b"/><path d="m22 18h-20v-12h20z" fill="#fff"/><g fill="#2196f3"><path d="m9 16c-.414 0-.75-.336-.75-.75v-4.5c0-.414.336-.75.75-.75s.75.336.75.75v4.5c0 .414-.336.75-.75.75z"/><path d="m10.25 11.5h-2.5c-.414 0-.75-.336-.75-.75s.336-.75.75-.75h2.5c.414 0 .75.336.75.75s-.336.75-.75.75z"/><path d="m15 16c-.323 0-.609-.207-.711-.513l-1.5-4.5c-.131-.393.081-.818.474-.949.393-.132.818.082.949.474l.788 2.366.789-2.366c.131-.393.555-.607.949-.474.393.131.605.556.474.949l-1.5 4.5c-.103.306-.389.513-.712.513z"/><path d="m12 8c-.551 0-1-.449-1-1s.449-1 1-1 1 .449 1 1-.449 1-1 1z"/><path d="m13.283 5.21c-.713-.916-1.853-.916-2.566 0-.255.326-.727.386-1.052.132-.328-.255-.386-.726-.132-1.052.637-.82 1.537-1.29 2.467-1.29s1.83.47 2.467 1.29c.254.327.196.798-.131 1.052s-.797.196-1.053-.132z"/><path d="m15.158 3.21c-.856-1.103-1.978-1.71-3.158-1.71s-2.302.607-3.158 1.71c-.253.328-.725.387-1.052.132-.327-.254-.387-.725-.132-1.052 1.129-1.455 2.712-2.29 4.342-2.29s3.213.835 4.342 2.29c.254.327.195.798-.132 1.052-.326.254-.798.196-1.052-.132z"/></g><path d="m12 20h-2v2h-2c-.552 0-1 .448-1 1s.448 1 1 1h4z" fill="#7d8f97"/><path d="m9.783 4h-8.033c-.965 0-1.75.785-1.75 1.75v12.5c0 .965.785 1.75 1.75 1.75h10.25v-2h-10v-12h10v-1.477c-.463 0-.927.229-1.283.687-.148.189-.37.289-.594.289-.161 0-.322-.051-.459-.158-.327-.254-.385-.725-.131-1.051.08-.102.163-.199.25-.29z" fill="#546d79"/><path d="m7.75 11.5c-.414 0-.75-.336-.75-.75s.336-.75.75-.75h2.5c.414 0 .75.336.75.75s-.336.75-.75.75h-.5v3.75c0 .414-.336.75-.75.75s-.75-.336-.75-.75v-3.75zm4.25-5.5h-10v12h10v-10c-.551 0-1-.449-1-1s.449-1 1-1z" fill="#dedede"/><path d="m9.75 11.5h-1.5v3.75c0 .414.336.75.75.75s.75-.336.75-.75z" fill="#1d83d4"/><path d="m10.25 10h-2.5c-.414 0-.75.336-.75.75s.336.75.75.75h.5 1.5.5c.414 0 .75-.336.75-.75s-.336-.75-.75-.75z" fill="#1d83d4"/><path d="m12 6c-.551 0-1 .449-1 1s.449 1 1 1z" fill="#1d83d4"/><path d="m12 3c-.814 0-1.605.36-2.217 1-.087.091-.17.188-.25.29-.254.326-.196.797.132 1.052.136.106.298.158.459.158.224 0 .445-.099.594-.289.356-.458.82-.687 1.283-.687v-1.524z" fill="#1d83d4"/><path d="m12 0c-1.63 0-3.213.835-4.342 2.29-.255.327-.195.798.132 1.052.137.107.299.158.46.158.224 0 .445-.1.593-.291.855-1.102 1.977-1.709 3.157-1.709z" fill="#1d83d4"/></svg>