<svg height="512" viewBox="0 0 176 176" width="512" xmlns="http://www.w3.org/2000/svg"><g id="Layer_2" data-name="Layer 2"><g id="_02.youtube" data-name="02.youtube"><path id="background" d="m144.52 173a532.59 532.59 0 0 1 -113 0 32.07 32.07 0 0 1 -28.52-28.48 532.59 532.59 0 0 1 0-113 32.07 32.07 0 0 1 28.48-28.52 532.59 532.59 0 0 1 113 0 32.07 32.07 0 0 1 28.52 28.48 532.59 532.59 0 0 1 0 113 32.07 32.07 0 0 1 -28.48 28.52z" fill="#e60000"/><path id="shadow" d="m176 95.17q-.33 24.69-3 49.35a32.06 32.06 0 0 1 -28.48 28.48q-24.77 2.64-49.58 3l-54.94-55c-4.07-74.42 94.75-67 94.75-67z" fill="#b50000"/><path id="icon" d="m140.43 61.54c-2.2-6.77-9.48-10.87-16.18-11.81a343.16 343.16 0 0 0 -72.5 0c-6.7.94-14 5-16.18 11.81a137.42 137.42 0 0 0 0 52.93c2.2 6.76 9.48 10.87 16.18 11.81a343.16 343.16 0 0 0 72.5 0c6.7-.94 14-5 16.18-11.81a137.42 137.42 0 0 0 0-52.93zm-65.59 47.54v-42.16l34.32 21.08c-11.57 7.11-22.8 14-34.32 21.08z" fill="#fff"/></g></g></svg>